<svg width="100" height="100" viewBox="0 0 100 100" fill="none" xmlns="http://www.w3.org/2000/svg">
  <defs>
    <linearGradient id="heartGradient" x1="0%" y1="0%" x2="100%" y2="100%">
      <stop offset="0%" style="stop-color:#e91e63;stop-opacity:1" />
      <stop offset="100%" style="stop-color:#9c27b0;stop-opacity:1" />
    </linearGradient>
  </defs>
  <path d="M50 85C50 85 20 65 20 40C20 25 30 15 45 15C55 15 62 20 68 30C74 20 81 15 91 15C106 15 116 25 116 40C116 65 86 85 86 85L50 85Z" fill="url(#heartGradient)" stroke="#d81b60" stroke-width="2"/>
  <path d="M50 75C50 75 25 58 25 38C25 26 33 18 45 18C53 18 59 22 64 30C69 22 75 18 83 18C95 18 103 26 103 38C103 58 78 75 78 75L50 75Z" fill="rgba(255,255,255,0.3)"/>
</svg> 